<svg height="66" viewBox="0 0 146 66" width="146" xmlns="http://www.w3.org/2000/svg"><g fill="none" fill-rule="evenodd"><g stroke="#ff5252" stroke-dasharray="4 4" stroke-width="2" transform="translate(102.20904 1.939597)"><path d="m42.0338983 53.9395973c0-11.5646202-9.4096086-20.9395973-21.0169491-20.9395973-11.60734055 0-21.0169492 9.3749771-21.0169492 20.9395973 0 11.5646203 42.0338983 11.5646203 42.0338983 0z"/><path d="m21.0112994 27.9194631c7.738227 0 14.0112995-6.2499847 14.0112995-13.9597316 0-7.7097468-6.2730725-13.9597315-14.0112995-13.9597315s-14.0112994 6.2499847-14.0112994 13.9597315c0 7.7097469 6.2730724 13.9597316 14.0112994 13.9597316z"/></g><g fill="#ff5252"><g transform="translate(51.20904 1.939597)"><path d="m42.0338983 53.9395973c0-11.5646202-9.4096086-20.9395973-21.0169491-20.9395973-11.60734055 0-21.0169492 9.3749771-21.0169492 20.9395973 0 11.5646203 42.0338983 11.5646203 42.0338983 0z"/><ellipse cx="21.011299" cy="13.959732" rx="14.011299" ry="13.959732"/></g><g transform="translate(.20904 1.939597)"><ellipse cx="21.016949" cy="13.959732" rx="14.011299" ry="13.959732"/><path d="m42.0338983 53.7449664c0-11.5646202-9.4096086-20.9395973-21.0169491-20.9395973-11.60734055 0-21.0169492 9.3749771-21.0169492 20.9395973 0 11.5646203 42.0338983 11.5646203 42.0338983 0z"/></g></g></g></svg>