<svg height="97" viewBox="0 0 144 97" width="144" xmlns="http://www.w3.org/2000/svg"><g fill="none" fill-rule="evenodd" transform="translate(0 1)"><g transform="translate(13.538462 58.076923)"><path d="m7.71282051 8.95104895c12.31320579 18.64801865 30.30978699 27.97202795 53.98974359 27.97202795s41.6765379-9.3240093 53.9897439-27.97202795" stroke="#000" stroke-linecap="round" stroke-linejoin="round" stroke-width="2"/><path d="m7.08045141 2.2721507c.52721284-.02836034 5.09770569 9.486699 4.95480919 9.8229007-.0704011.1656374-2.45207654-1.3592697-4.85662853-1.3586035-2.47607719.0006861-4.97711382 1.5221157-5.05298987 1.3586035-.14956031-.3223011 4.42759637-9.79454037 4.95480921-9.8229007z" fill="#000" transform="matrix(.83867057 -.54463904 .54463904 .83867057 -2.773617 5.016143)"/></g><path d="m14.7692308 39.6153846h110.1182512" stroke="#000" stroke-width="2"/><path d="m0 .08022049c6.0529271 7.90599334 14.3961224 11.85899001 25.0295858 11.85899001s18.9766587-3.95299667 25.0295858-11.85899001" stroke="#000" stroke-linecap="round" stroke-linejoin="round" stroke-width="2" transform="matrix(-1 0 0 -1 66.059172 12.01943)"/><path d="m51.2265392 9.49671408c.4285908-.02233003 4.1441138 7.46952722 4.027948 7.73424182-.0603895.1376134-2.2915745-.90723-4.3515275-.9139976-1.9025945-.0062506-3.6459911 1.0358437-3.7043686.9139976-.1215831-.2537697 3.5993572-7.71191179 4.0279481-7.73424182z" fill="#000" transform="matrix(-.80901699 .58778525 -.58778525 -.80901699 116.528176 -5.923475)"/><g fill="#ff5252"><circle cx="129.692308" cy="38.846154" r="14"/><circle cx="71.846154" cy="38.846154" r="14"/><circle cx="14" cy="38.846154" r="14"/></g></g></svg>